# xmcd
#
# Track frame offsets:
#	150
#	20809
#	36281
#	56137
#	73933
#	90449
#	106684
#	127420
#	132445
#	151328
#
# Disc length: 2229 seconds
#
# Revision: 1
# Processed by: cddbd v1.5.2PL0 Copyright (c) Steve Scherf et al.
# Submitted via: audiograbber 1.83.01
#
DISCID=9008b30a
DTITLE=The Youngers - Output
DYEAR=2005
DGENRE=Country Rock
TTITLE0=Long Way Home
TTITLE1=Watched Her Walk Out
TTITLE2=Lonely Guy
TTITLE3=Point Of View
TTITLE4=Runaway
TTITLE5=Madelin
TTITLE6=Ramblin And Movin On
TTITLE7=Arkansas Prelude
TTITLE8=Arkansas
TTITLE9=Last Minute Savior
EXTD=
EXTT0=
EXTT1=
EXTT2=
EXTT3=
EXTT4=
EXTT5=
EXTT6=
EXTT7=
EXTT8=
EXTT9=
PLAYORDER=
